<?xml version="1.0" encoding="UTF-8" standalone="no"?>
<svg
   xmlns:dc="http://purl.org/dc/elements/1.1/"
   xmlns:cc="http://creativecommons.org/ns#"
   xmlns:rdf="http://www.w3.org/1999/02/22-rdf-syntax-ns#"
   xmlns:svg="http://www.w3.org/2000/svg"
   xmlns="http://www.w3.org/2000/svg"
   xmlns:sodipodi="http://sodipodi.sourceforge.net/DTD/sodipodi-0.dtd"
   xmlns:inkscape="http://www.inkscape.org/namespaces/inkscape"
   inkscape:version="1.0 (4035a4fb49, 2020-05-01)"
   sodipodi:docname="buscar-gr.svg"
   xml:space="preserve"
   style="enable-background:new 0 0 511.999 511.999;"
   viewBox="0 0 511.999 511.999"
   y="0px"
   x="0px"
   id="Capa_1"
   version="1.1"><metadata
   id="metadata43"><rdf:RDF><cc:Work
       rdf:about=""><dc:format>image/svg+xml</dc:format><dc:type
         rdf:resource="http://purl.org/dc/dcmitype/StillImage" /><dc:title></dc:title></cc:Work></rdf:RDF></metadata><defs
   id="defs41" /><sodipodi:namedview
   inkscape:current-layer="Capa_1"
   inkscape:window-maximized="1"
   inkscape:window-y="-8"
   inkscape:window-x="-8"
   inkscape:cy="228.11806"
   inkscape:cx="249.2121"
   inkscape:zoom="1.2540121"
   showgrid="false"
   id="namedview39"
   inkscape:window-height="1058"
   inkscape:window-width="1920"
   inkscape:pageshadow="2"
   inkscape:pageopacity="0"
   guidetolerance="10"
   gridtolerance="10"
   objecttolerance="10"
   borderopacity="1"
   bordercolor="#666666"
   pagecolor="#ffffff" />
<g
   id="g6">
	<g
   id="g4">
		<path
   id="path2"
   d="M508.874,478.708L360.142,329.976c28.21-34.827,45.191-79.103,45.191-127.309c0-111.75-90.917-202.667-202.667-202.667    S0,90.917,0,202.667s90.917,202.667,202.667,202.667c48.206,0,92.482-16.982,127.309-45.191l148.732,148.732    c4.167,4.165,10.919,4.165,15.086,0l15.081-15.082C513.04,489.627,513.04,482.873,508.874,478.708z M202.667,362.667    c-88.229,0-160-71.771-160-160s71.771-160,160-160s160,71.771,160,160S290.896,362.667,202.667,362.667z" />
	</g>
</g>
<g
   id="g8">
</g>
<g
   id="g10">
</g>
<g
   id="g12">
</g>
<g
   id="g14">
</g>
<g
   id="g16">
</g>
<g
   id="g18">
</g>
<g
   id="g20">
</g>
<g
   id="g22">
</g>
<g
   id="g24">
</g>
<g
   id="g26">
</g>
<g
   id="g28">
</g>
<g
   id="g30">
</g>
<g
   id="g32">
</g>
<g
   id="g34">
</g>
<g
   id="g36">
</g>
<path
   id="path45"
   d="m 406.57372,435.33143 -76.14265,-76.1037 -10.14976,7.27306 c -27.05365,19.38596 -56.66471,31.31021 -89.87752,36.1933 -17.51213,2.5747 -50.71077,1.70696 -66.87988,-1.74811 -53.119,-11.35063 -98.719585,-41.82011 -128.165135,-85.6376 -63.19251,-94.03586 -37.4987414,-219.660504 57.68069,-282.018438 67.178195,-44.012588 154.407075,-43.36137 221.603085,1.654405 44.63797,29.90375 74.82987,74.885303 86.30343,128.579563 3.45507,16.16911 4.32281,49.36775 1.74811,66.87988 -4.88309,33.21281 -16.80734,62.82387 -36.1933,89.87752 l -7.27306,10.14976 76.1037,76.14265 c 56.25037,56.27917 76.10369,76.81413 76.10369,78.71664 0,4.15404 -2.72428,8.18607 -10.91208,16.15027 -8.33016,8.10267 -11.21007,9.99449 -15.21454,9.99449 -1.92652,0 -22.14432,-19.54218 -78.73478,-76.10369 z M 226.67797,361.276 c 35.62993,-5.22981 66.75911,-21.55091 92.47559,-48.48514 31.115,-32.58839 46.96712,-77.22997 43.37237,-122.14216 -1.2251,-15.30613 -2.82177,-23.75808 -6.93508,-36.71068 C 338.09363,98.840318 293.09571,58.274479 235.1361,45.347493 220.44347,42.070528 186.37457,41.868859 171.98204,44.973655 150.30377,49.650151 132.6989,56.79391 115.88593,67.736515 103.68684,75.676206 101.58377,77.385262 89.845569,88.89817 67.682577,110.63578 53.333362,136.4411 45.902006,167.92533 c -2.630237,11.14346 -2.959056,14.86286 -3.000698,33.94211 -0.0527,24.14506 1.384597,33.54938 8.086291,52.90911 9.430558,27.24284 25.545362,51.23534 46.371683,69.0404 36.353438,31.07969 82.235258,44.37002 129.318688,37.45905 z"
   style="fill:#666666;stroke-width:1.12775" /><path
   id="path47"
   d="m 375.16555,307.35399 c 0.6206,-0.95092 3.80875,-6.47071 5.10919,-8.8458 2.90079,-5.29791 6.48203,-12.77619 8.91014,-18.606 5.5571,-13.34243 9.70219,-27.47757 12.36781,-42.1754 2.03818,-11.23819 2.64943,-18.95867 2.64322,-33.38582 -0.006,-13.36567 -0.68334,-24.59148 -2.0804,-34.46689 -1.5899,-11.23848 -6.6052,-28.88805 -11.89374,-41.85583 -0.31352,-0.76877 -0.57004,-1.4507 -0.57004,-1.51541 0,-0.0647 0.15268,-0.11766 0.33927,-0.11766 0.39886,0 0.55489,0.34236 2.43501,5.34257 12.53304,33.33198 15.97171,69.90026 9.90103,105.2916 -4.08991,23.84367 -12.79763,47.47319 -25.19173,68.36107 -1.25862,2.12116 -1.38951,2.29075 -1.76801,2.29075 -0.39125,0 -0.39989,-0.0135 -0.20175,-0.31718 z"
   style="fill:#666666;stroke-width:0.140969" /><path
   id="path49"
   d="m 323.53733,307.60749 c 0,-0.0479 0.55547,-0.73515 1.23439,-1.52716 6.3899,-7.45423 12.87216,-16.81878 17.927,-25.89809 22.48862,-40.39323 26.24604,-89.14142 10.22998,-132.72221 -2.11498,-5.75503 -4.23815,-10.62151 -7.27613,-16.67752 -1.54414,-3.07816 -2.14299,-4.40017 -1.97956,-4.37004 0.2873,0.053 3.81106,7.01426 5.55206,10.96828 5.03246,11.42928 9.10616,24.37583 11.02264,35.03077 0.86941,4.83364 1.65471,11.33602 2.1877,18.1145 1.36405,17.34747 -0.0455,34.37005 -4.22892,51.07241 -5.57437,22.25558 -15.88569,43.08751 -30.08787,60.7864 -3.25078,4.05117 -4.58129,5.56795 -4.58129,5.22266 z"
   style="fill:#666666;stroke-width:0.140969" /><path
   id="path51"
   d="m 326.11296,305.09849 c 26.42859,-31.60013 39.56948,-72.44952 36.53953,-113.58568 -0.98598,-13.38619 -2.47677,-22.23243 -5.50994,-32.69561 -3.02854,-10.44721 -6.62143,-19.64358 -11.28836,-28.89375 -0.95447,-1.89183 -1.73541,-3.46206 -1.73541,-3.48941 0,-0.0273 10.19312,-0.0337 22.65138,-0.014 l 22.65137,0.0357 0.68429,1.69163 c 5.18924,12.82838 9.97457,29.47909 11.72875,40.81049 2.28947,14.78926 2.94175,39.19664 1.47869,55.33029 -0.87856,9.68827 -3.36739,22.3089 -6.68578,33.90302 -4.78627,16.72274 -11.96628,33.15873 -21.01478,48.10563 l -0.83206,1.37445 h -25.40966 -25.40967 z"
   style="fill:#666666;stroke-width:0.140969" /><path
   id="path53"
   d=""
   style="fill:#666666;stroke-width:0.0352422" /><path
   id="path55"
   d="m 362.78897,210.74089 c -0.002,-0.0872 0.019,-0.72951 0.0471,-1.42731 0.22967,-5.69435 0.11928,-11.92399 -0.31694,-17.88543 -0.46529,-6.35888 -1.25071,-13.14196 -2.09595,-18.10107 -0.38098,-2.23531 -1.00124,-5.26111 -1.49275,-7.28214 -0.0648,-0.26652 -0.10569,-0.48458 -0.0908,-0.48458 0.0149,0 0.0692,0.17842 0.12074,0.39648 1.65134,6.9855 2.64898,13.81271 3.46972,23.74444 0.29164,3.52916 0.43525,6.1235 0.53063,9.58589 0.0437,1.58764 0.0442,6.27632 8.4e-4,7.82377 -0.0526,1.87471 -0.11196,3.38454 -0.14139,3.59471 l -0.0271,0.19383 -0.004,-0.15859 z"
   style="fill:#666666;stroke-width:0.0352422" /><path
   id="path57"
   d=""
   style="fill:#666666;stroke-width:0.0352422" /><path
   id="path59"
   d=""
   style="fill:#666666;stroke-width:0.0352422" /><path
   id="path61"
   d=""
   style="fill:#666666;stroke-width:0.0352422" /><path
   id="path63"
   d=""
   style="fill:#666666;stroke-width:0.0352422" /><path
   id="path65"
   d="m 362.55122,210.503 c 0.11851,-1.98944 0.17624,-4.54192 0.17675,-7.81496 7.7e-4,-4.90577 -0.14642,-8.59865 -0.52744,-13.23345 -0.31034,-3.77498 -0.66563,-6.77701 -1.36286,-11.5154 -0.0207,-0.14053 -0.0495,-0.2555 -0.0641,-0.2555 -0.0146,0 -0.0194,-0.0278 -0.0107,-0.0617 0.0169,-0.0659 -0.30122,-2.00887 -0.59009,-3.60352 -0.42394,-2.34026 -0.95128,-4.90758 -1.47753,-7.19324 -0.15445,-0.67083 -0.28082,-1.23069 -0.28082,-1.24413 0,-0.0134 0.083,-0.0196 0.18439,-0.0138 l 0.18439,0.0106 0.097,0.40529 c 0.84066,3.51161 1.57567,7.41034 2.07626,11.01319 0.0431,0.31013 0.0903,0.57204 0.10483,0.58202 0.0146,0.01 0.0266,0.10514 0.0267,0.21146 1.2e-4,0.10632 0.0167,0.29639 0.0369,0.42238 0.0693,0.43271 0.38982,3.04968 0.54825,4.47576 1.10807,9.9744 1.46347,18.37463 1.12795,26.66074 -0.0282,0.6978 -0.0515,1.32819 -0.0516,1.40088 -2.5e-4,0.1245 -0.007,0.13216 -0.11051,0.13216 h -0.11026 z m 0.31945,0.0353 c 0.0372,-0.59675 0.0863,-1.98098 0.12852,-3.62114 0.0464,-1.80166 0.0237,-7.35691 -0.0362,-8.88104 -0.16109,-4.09776 -0.32854,-6.60721 -0.7443,-11.15416 -0.33741,-3.6901 -0.96831,-9.14143 -1.06514,-9.20343 -0.0196,-0.0126 -0.0267,-0.057 -0.0158,-0.0987 0.0512,-0.19574 -0.61835,-4.31701 -1.12247,-6.90932 -0.29562,-1.52012 -0.86463,-4.13662 -1.09022,-5.0132 l -0.0249,-0.0969 h 20.95533 20.95532 v 22.66075 22.66075 h -18.98076 -18.98077 z"
   style="fill:#666666;stroke-width:0.0352422" /><path
   id="path67"
   d="m 362.53772,210.84701 c 0,-0.0192 0.0234,-0.56234 0.052,-1.20705 0.27301,-6.16067 0.17594,-12.62632 -0.28242,-18.81093 -0.60526,-8.16679 -1.8262,-16.25201 -3.64858,-24.16151 -0.13436,-0.58312 -0.24429,-1.07079 -0.24429,-1.08369 0,-0.0325 0.34442,-0.0297 0.36459,0.003 0.0202,0.0326 0.46049,1.93652 0.65818,2.84581 0.62798,2.88854 1.2541,6.47308 1.64205,9.40087 0.0584,0.44048 0.0959,0.53726 0.1401,0.36118 0.0346,-0.138 -0.39922,-3.05959 -0.76409,-5.14532 -0.3975,-2.27232 -1.15374,-5.92557 -1.5302,-7.39205 l -0.0249,-0.0969 h 20.95533 20.95532 v 22.66075 22.66075 h -18.98213 -18.98213 l 0.0219,-0.32599 c 0.14233,-2.1165 0.21019,-8.05452 0.12778,-11.1806 -0.11607,-4.40249 -0.37369,-8.34783 -0.90092,-13.79733 -0.32336,-3.34217 -0.77449,-7.11893 -0.85036,-7.11893 -0.0255,0 -0.0464,-0.0317 -0.0464,-0.0705 0,-0.0388 -0.0126,-0.0705 -0.028,-0.0705 -0.0154,0 0.031,0.45594 0.10318,1.01321 0.44875,3.46697 0.90656,8.01285 1.19163,11.83258 0.45319,6.07232 0.56987,12.39429 0.33565,18.18498 -0.0282,0.6978 -0.0514,1.32819 -0.0516,1.40088 -2.5e-4,0.12329 -0.007,0.13216 -0.10598,0.13216 -0.0581,0 -0.10573,-0.0157 -0.10573,-0.0348 z"
   style="fill:#666666;stroke-width:0.0352422" /><path
   id="path69"
   d="m 503.71122,498.40744 c 4.84056,-5.02241 7.07314,-8.35686 7.63296,-11.40014 0.33415,-1.81647 0.29789,-1.95336 -0.94783,-3.57805 -5.13372,-6.69548 -22.04745,-23.93526 -101.07748,-103.02597 l -49.93418,-49.97252 4.38752,-6.14735 c 4.97898,-6.97603 7.49945,-10.64903 9.7248,-14.17159 0.84855,-1.34319 1.66845,-2.44216 1.822,-2.44216 0.15355,0 0.27919,0.0493 0.27919,0.10951 0,0.21926 -3.88676,6.25174 -6.03076,9.36009 -2.03485,2.95011 -5.71352,7.92623 -8.44843,11.42814 l -1.14032,1.46013 74.97136,74.99447 c 48.21015,48.22501 75.15509,75.31703 75.48607,75.89813 1.81799,3.19173 1.92052,6.63743 0.29616,9.95348 -0.75474,1.54076 -1.1537,2.01906 -4.61474,5.53225 -2.08372,2.11511 -3.87746,3.84566 -3.98611,3.84566 -0.10863,0 0.60227,-0.82983 1.57979,-1.84408 z"
   style="fill:#666666;stroke-width:0.19936" /><path
   id="path71"
   d=""
   style="fill:#666666;stroke-width:0.19936" /><path
   id="path77"
   d="m 400.08456,430.14159 -70.10992,-70.10993 -1.46032,1.13763 c -13.78286,10.73723 -26.69964,18.71295 -41.10171,25.37905 -22.45939,10.39549 -45.5824,16.32936 -71.10314,18.24663 -4.67932,0.35154 -23.05955,0.3552 -27.41202,0.005 C 170.15458,403.29434 154.9389,400.27 138.55903,394.79494 112.42741,386.0603 88.830654,372.31415 67.586826,353.4505 63.865082,350.14574 54.290053,340.50698 51.02281,336.77623 28.219008,310.73738 12.937265,281.15324 5.2921569,248.24562 c -0.9975404,-4.29382 -1.0090083,-4.3712 -0.6478159,-4.3712 0.1680617,0 0.6155943,1.5413 1.3159657,4.53217 9.5502443,40.78342 32.0721623,78.3104 63.5204403,105.84047 20.846226,18.24895 45.341553,32.14194 72.068683,40.87512 7.38924,2.41445 18.00553,5.19664 24.16503,6.33288 15.13596,2.79211 41.65086,3.62698 60.06461,1.89125 5.95521,-0.56135 16.97442,-2.57451 24.96705,-4.56136 15.56514,-3.86927 28.24492,-8.57297 42.51635,-15.77191 10.68241,-5.38852 18.56226,-10.27823 31.10018,-19.29866 l 6.08048,-4.37462 55.92051,55.85903 c 61.50487,61.43723 76.93078,76.733 84.82773,84.11207 l 0.9968,0.93141 -0.99684,0.005 -0.99684,0.005 -70.10993,-70.10993 z"
   style="fill:#666666;stroke-width:0.19936" /><path
   id="path79"
   d="m 235.84676,359.32924 c 14.44412,-3.20938 26.39019,-7.42443 38.77554,-13.68156 4.51624,-2.28162 8.62999,-4.58133 12.22135,-6.8321 1.12969,-0.708 2.09932,-1.24194 2.15473,-1.18653 0.12983,0.12983 -3.81985,2.62461 -7.39848,4.67318 -11.4002,6.52597 -23.24201,11.42007 -36.28354,14.9956 -3.54696,0.97246 -10.55188,2.55502 -11.9616,2.7024 -0.54824,0.0573 0.57316,-0.24464 2.492,-0.67099 z"
   style="fill:#666666;stroke-width:0.19936" /><path
   id="path81"
   d="m 102.37517,327.77518 c -4.756101,-3.78579 -8.013298,-6.67084 -12.33465,-10.92533 -6.366806,-6.2683 -11.553329,-12.25218 -16.51031,-19.04852 -2.406543,-3.29952 -5.837258,-8.44602 -5.713029,-8.57025 0.0523,-0.0523 0.986268,1.2237 2.075488,2.83555 8.610555,12.74211 19.579191,24.76562 31.403141,34.42326 1.48967,1.21674 3.05963,2.4991 3.4888,2.84969 0.42917,0.35058 0.69061,0.64188 0.58096,0.64733 -0.10965,0.005 -1.45533,-0.98983 -2.9904,-2.21173 z"
   style="fill:#666666;stroke-width:0.19936" /><path
   id="path83"
   d="m 199.28385,363.00511 c -16.03415,-0.31545 -31.70391,-2.97898 -46.82471,-7.95921 -1.53685,-0.50618 -4.19211,-1.43945 -5.78144,-2.03206 -1.34323,-0.50084 -5.04569,-1.9671 -5.83128,-2.30932 l -0.44856,-0.1954 -0.0153,-0.20632 c -0.008,-0.11347 -0.003,-0.20632 0.013,-0.20632 0.0156,0 0.4374,0.17094 0.93736,0.37985 7.28305,3.04334 15.39404,5.71199 23.08784,7.5963 16.38827,4.01369 33.07271,5.40764 50.06431,4.18276 6.83094,-0.49242 14.30672,-1.53803 20.85026,-2.91625 0.71616,-0.15084 1.33329,-0.26801 1.37139,-0.26039 0.0381,0.008 -0.58954,0.16526 -1.39476,0.3503 -0.80522,0.18504 -1.62104,0.38634 -1.81292,0.44734 -0.31278,0.0994 -0.33208,0.11265 -0.18644,0.12778 0.67162,0.0697 8.9951,-1.82908 13.14484,-2.9987 11.87028,-3.34569 22.70939,-7.77707 33.13511,-13.54671 2.13135,-1.17949 4.65656,-2.65488 6.23145,-3.64078 0.21541,-0.13485 0.38273,-0.21842 0.37183,-0.1857 -0.0335,0.10053 -3.18482,1.99125 -5.37369,3.22411 -6.0735,3.42085 -12.09307,6.30489 -18.54049,8.88297 -15.49411,6.19552 -32.3483,9.90972 -49.86494,10.98886 -4.08778,0.25184 -9.06853,0.35685 -13.13285,0.27689 z"
   style="fill:#666666;stroke-width:0.04984" /><path
   id="path85"
   d="m 286.19359,339.6326 c 5e-5,-0.0233 0.10659,-0.10789 0.23674,-0.18804 0.69981,-0.43095 2.39642,-1.57885 2.5006,-1.69187 0.24547,-0.26629 -0.10186,-0.1377 -0.95815,0.35473 -0.67945,0.39073 -0.46302,0.19692 0.3513,-0.31458 1.10633,-0.69493 4.5606,-3.00022 5.88877,-3.93002 5.08866,-3.56236 10.25381,-7.64839 14.80212,-11.70963 0.79564,-0.71044 0.82298,-0.72959 1.04139,-0.72959 h 0.22429 l -0.3187,0.29203 c -6.54558,5.99767 -14.64156,12.18615 -22.27324,17.02541 -1.41723,0.89867 -1.49523,0.94518 -1.49512,0.89156 z"
   style="fill:#666666;stroke-width:0.04984" /><path
   id="path87"
   d="m 484.4086,511.79704 c -1.80105,-0.32957 -3.43802,-1.08435 -4.86343,-2.24244 -0.29075,-0.23623 -2.50921,-2.41231 -4.92992,-4.83573 l -4.4013,-4.40624 1.04768,-0.0214 1.04769,-0.0214 0.88792,0.84581 c 4.93465,4.70059 9.11424,8.42873 10.82369,9.65458 0.95781,0.68686 0.98783,0.69658 2.00698,0.65013 2.36893,-0.10796 4.37356,-1.05158 7.43391,-3.49929 1.84294,-1.47401 4.32282,-3.7439 7.34916,-6.72684 1.09673,-1.08101 1.99406,-1.94282 1.99406,-1.91513 0,0.0277 -0.15859,0.23266 -0.35242,0.45552 -0.3655,0.42022 -0.44245,0.59639 -0.22908,0.52445 0.0678,-0.0229 -2.00176,2.08164 -4.59911,4.67671 -5.06778,5.06331 -5.18781,5.17 -6.62554,5.88887 -0.81212,0.40606 -1.50478,0.65563 -2.43171,0.87613 -1.04581,0.2488 -3.06907,0.29562 -4.15858,0.0963 z"
   style="fill:#666666;stroke-width:0.0704844" /><path
   id="path89"
   d="m 484.76102,511.82274 c -1.32306,-0.2365 -2.29091,-0.5586 -3.36931,-1.12128 -1.37292,-0.71636 -1.60745,-0.92519 -6.44338,-5.73718 -2.50888,-2.49647 -4.54489,-4.56607 -4.52447,-4.59911 0.0204,-0.0331 0.45051,-0.0601 0.95574,-0.0601 h 0.91859 l 1.35092,1.28634 c 5.48327,5.22115 9.93964,9.11119 11.13807,9.72258 0.26493,0.13516 0.36864,0.14388 1.27647,0.1073 3.51349,-0.14155 6.40026,-2.08893 14.01031,-9.45119 1.62368,-1.57081 2.09253,-1.98911 2.05405,-1.83259 -0.0691,0.28085 -1.29988,1.56591 -5.32507,5.55962 -3.51566,3.48818 -4.35806,4.26002 -5.18266,4.74858 -0.73172,0.43353 -1.90841,0.91242 -2.82628,1.15025 -0.77437,0.20064 -0.92056,0.21538 -2.34135,0.23614 -0.83348,0.0122 -1.59471,0.008 -1.69163,-0.009 z"
   style="fill:#666666;stroke-width:0.0704844" /><path
   id="path91"
   d=""
   style="fill:#666666;stroke-width:0.0352422" /><path
   id="path93"
   d="m 472.1864,500.22902 c -0.006,-0.015 -0.52693,-0.51061 -1.1566,-1.10132 -2.66416,-2.49932 -5.43326,-5.16818 -9.8331,-9.47716 -3.96411,-3.88225 -9.8387,-9.69937 -9.81705,-9.72102 0.01,-0.01 0.95778,0.90876 2.1068,2.04105 6.29808,6.20645 13.25939,12.97638 17.33153,16.85507 1.59298,1.5173 1.5059,1.43068 1.43844,1.43068 -0.032,0 -0.0636,-0.0123 -0.07,-0.0273 z"
   style="fill:#666666;stroke-width:0.0352422" /><path
   id="path95"
   d="m 498.56371,504.0464 c -1.1e-4,-0.0169 0.8249,-0.8626 1.83333,-1.87935 1.00844,-1.01675 1.82914,-1.86779 1.82379,-1.89121 -0.005,-0.0234 0.12381,-0.16026 0.28704,-0.3041 0.97423,-0.85854 5.23867,-5.14749 6.43119,-6.46816 0.9378,-1.03857 1.40745,-1.73625 1.90919,-2.83612 0.7106,-1.55774 1.03683,-2.97307 1.03683,-4.49824 0,-1.45933 -0.27562,-2.76928 -0.87027,-4.1361 -0.40733,-0.93626 -0.51179,-1.09383 -1.22045,-1.8409 -1.338,-1.4105 -5.26101,-5.39567 -11.22355,-11.40137 l -4.17243,-4.20263 h 0.17114 0.17114 l 7.17459,7.1806 c 3.94602,3.94933 7.28444,7.30747 7.4187,7.46254 0.79085,0.91338 1.4211,1.93493 1.85899,3.01321 0.97046,2.3897 1.04254,5.01695 0.20496,7.47135 -0.37453,1.0975 -1.01633,2.25831 -1.78314,3.22513 -0.18054,0.22763 -2.18167,2.25667 -5.66501,5.74402 -2.96222,2.96563 -5.38594,5.37823 -5.38604,5.36133 z"
   style="fill:#666666;stroke-width:0.0352422" /><path
   id="path97"
   d="m 482.53894,509.53285 c -3.5019,-2.92521 -9.58464,-8.625 -19.58732,-18.35418 -2.96325,-2.88222 -8.71688,-8.51578 -10.99593,-10.76645 -0.65903,-0.65083 -3.14097,-3.10104 -5.51541,-5.44491 -2.37445,-2.34387 -5.30043,-5.23783 -6.50219,-6.43101 -1.20176,-1.19318 -2.58942,-2.56945 -3.08369,-3.05838 l -0.89868,-0.88895 28.40872,-3.8e-4 28.40871,-3.7e-4 0.33176,0.34361 c 8.89727,9.21533 12.91896,13.50649 15.73012,16.78411 1.74264,2.03178 2.51481,3.10053 2.57843,3.56872 0.0269,0.19828 -0.0408,0.99463 -0.13068,1.53552 -0.35237,2.12134 -1.58528,4.4414 -3.8475,7.24016 -1.55775,1.9272 -3.85314,4.37035 -6.77484,7.21093 -4.98531,4.84689 -7.65067,7.14273 -9.85963,8.49268 l -0.23851,0.14576 h -3.7861 -3.7861 z"
   style="fill:#666666;stroke-width:0.0352422" /><path
   id="path99"
   d=""
   style="fill:#666666;stroke-width:0.0352422" /><path
   id="path101"
   d="m 509.57109,482.51745 c -2.5182,-3.02719 -8.59333,-9.54138 -16.06165,-17.22245 -0.41835,-0.43027 -0.6484,-0.69141 -0.61801,-0.70154 0.0281,-0.009 0.18969,0.13157 0.38449,0.33525 0.18484,0.19327 1.04998,1.08779 1.92253,1.98783 3.8607,3.98232 6.20295,6.43845 9.00478,9.44258 2.23245,2.39364 4.5468,5.02207 5.70382,6.47786 0.47038,0.59184 0.23953,0.37228 -0.33596,-0.31953 z"
   style="fill:#666666;stroke-width:0.0352422" /><path
   id="path103"
   d="m 510.44015,483.60139 c -0.0249,-0.03 -0.0374,-0.0625 -0.0277,-0.0722 0.01,-0.01 0.038,0.007 0.0629,0.0369 0.0249,0.03 0.0374,0.0625 0.0277,0.0722 -0.01,0.01 -0.038,-0.007 -0.0629,-0.037 z"
   style="fill:#666666;stroke-width:0.0352422" /><path
   id="path105"
   d="m 502.19383,500.15971 c 0.001,-0.0827 0.68694,-0.84721 2.0835,-2.32207 3.79277,-4.00542 5.8124,-6.83712 6.6959,-9.38822 0.42004,-1.21288 0.6551,-2.71398 0.51206,-3.27004 -0.10152,-0.39463 -0.29437,-0.72427 -0.88192,-1.5075 -2.19853,-2.93072 -7.14222,-8.31856 -15.79189,-17.21068 -0.9117,-0.93726 -1.68671,-1.7421 -1.72225,-1.78854 l -0.0646,-0.0844 h 0.666 0.666 l 0.82592,0.83657 c 0.45426,0.46012 2.54742,2.57333 4.65146,4.69603 5.80583,5.85729 9.68892,9.81342 10.37311,10.56821 0.19756,0.21796 0.28532,0.36166 0.54884,0.89868 0.75439,1.53739 1.09389,2.94989 1.09389,4.55112 0,1.69781 -0.39476,3.25973 -1.25045,4.9475 -0.42238,0.8331 -0.76631,1.3347 -1.45391,2.12039 -1.35268,1.54565 -6.95401,7.14807 -6.95165,6.95299 z"
   style="fill:#666666;stroke-width:0.0352422" /><path
   id="path107"
   d=""
   style="fill:#666666;stroke-width:0.0352422" /><path
   id="path109"
   d=""
   style="fill:#666666;stroke-width:0.00881056" /><path
   id="path111"
   d="m 502.86072,499.13069 c 0.0913,-0.0943 0.30485,-0.31342 0.47446,-0.48696 2.83423,-2.90006 4.80404,-5.24943 6.06316,-7.23147 0.75373,-1.18649 1.30585,-2.33329 1.61928,-3.36342 l 0.0234,-0.0771 h 0.0337 0.0337 l -0.0441,0.14317 c -0.43465,1.41072 -1.28783,2.99447 -2.53096,4.69823 -1.17635,1.61223 -2.62512,3.29318 -4.75359,5.51539 -0.37659,0.39317 -0.57426,0.60303 -0.76188,0.80884 -0.14263,0.15646 -0.15135,0.16431 -0.18255,0.16452 -0.0255,1.8e-4 -0.0316,-0.003 -0.0277,-0.013 0.006,-0.0166 -0.005,-0.0165 -0.0271,2.8e-4 -0.009,0.007 -0.0326,0.0129 -0.0515,0.0129 h -0.0344 z"
   style="fill:#666666;stroke-width:0.00881056" /><path
   id="path113"
   d=""
   style="fill:#666666;stroke-width:0.00881056" /><path
   id="path115"
   d="m 503.79362,498.85058 c 0.24726,-0.24835 1.0026,-1.00661 1.67853,-1.68502 1.81319,-1.81986 3.07991,-3.10201 3.66037,-3.70495 0.44081,-0.45787 0.43806,-0.45508 0.43469,-0.44302 -0.004,0.0148 -0.20829,0.2525 -0.37403,0.43549 -0.14775,0.16313 -5.82505,5.84904 -5.84017,5.84904 -0.005,0 0.19335,-0.2032 0.44061,-0.45154 z"
   style="fill:#666666;stroke-width:0.00881056" /><path
   id="path117"
   d="m 0.05725711,201.5863 c 0.02694932,-4.52973 0.05089323,-5.53534 0.21034384,-8.83414 0.79891875,-16.52846 3.62450045,-32.91761 8.38218155,-48.61895 0.2616437,-0.86348 0.5033863,-1.65967 0.5372053,-1.76932 l 0.06149,-0.19936 0.4005503,-0.0144 0.4005499,-0.0144 -0.1714063,0.53771 c -0.4993528,1.56649 -1.3636038,4.51219 -1.9782978,6.74279 -3.7359604,13.55709 -6.0707572,27.79387 -6.8576814,41.81579 -0.23669438,4.21757 -0.30785453,6.82093 -0.31026913,11.35106 l -0.001946,3.65078 H 0.37979198 0.02960676 l 0.02765045,-4.64758 z"
   style="fill:#666666;stroke-width:0.04984" /><path
   id="path119"
   d="m 43.034563,190.73364 c 0.19886,-8.78455 0.677898,-13.0151 2.27999,-20.13537 2.239761,-9.9543 4.906692,-18.73333 8.262997,-27.2002 l 0.498859,-1.25846 h 0.219778 0.219777 l -0.09376,0.23674 c -0.05157,0.13021 -0.255374,0.64044 -0.452898,1.13386 -5.87025,14.66393 -9.549491,30.42702 -10.812955,46.32631 -0.05555,0.699 -0.109862,1.37184 -0.120698,1.4952 -0.01084,0.12335 -0.01132,-0.14579 -0.0011,-0.59808 z"
   style="fill:#666666;stroke-width:0.04984" /><path
   id="path121"
   d="m 4.7897266,243.9163 c -0.00683,-0.11396 -0.1103333,-0.15422 -0.2679036,-0.10421 -0.2859197,0.0907 -0.1922667,0.46595 -1.0887788,-4.36205 C 1.636038,229.77258 0.50401585,219.27498 0.18371305,209.31794 L 0.08508213,206.25187 H 0.387791 c 0.26192136,0 0.30290428,0.0807 0.30415904,0.59911 0.002527,1.04386 0.27458407,6.8566 0.42721146,9.12774 0.5739435,8.54044 1.7280645,17.26274 3.3909889,25.62748 0.2357572,1.1859 0.397612,2.23259 0.3596774,2.32599 -0.049631,0.1222 -0.072093,0.11775 -0.080101,-0.0159 z"
   style="fill:#666666;stroke-width:0.140969" /><path
   id="path123"
   d="m 57.855462,271.41473 c -3.147097,-6.73071 -5.76637,-13.38785 -8.222634,-20.89863 -3.583775,-10.95849 -5.176087,-18.3298 -6.014143,-27.84136 -0.257701,-2.92478 -0.250558,-3.83038 0.01279,-1.62114 2.088037,17.51691 6.793462,34.0398 14.111114,49.55056 1.614518,3.42219 1.50806,3.1718 1.348543,3.1718 -0.07239,0 -0.628442,-1.06255 -1.235667,-2.36123 z"
   style="fill:#666666;stroke-width:0.140969" /><path
   id="path125"
   d="M 9.4220157,141.81655 C 10.98116,136.64421 14.208795,128.04183 16.91776,121.83867 32.402991,86.379624 57.966183,55.843005 90.261545,34.225535 113.9065,18.39837 140.45704,7.7727515 168.28782,2.9991518 c 6.5744,-1.1276562 9.27687,-1.4495814 12.54623,-1.4945451 l 3.10132,-0.042652 -1.8326,0.2038734 c -4.17913,0.4649218 -8.80381,1.0854632 -12.00712,1.61112 C 130.85449,9.7163399 95.155665,27.290223 65.311324,54.860371 62.463644,57.491054 56.223215,63.778092 53.609635,66.649461 42.75816,78.571266 33.671014,91.183532 25.968038,105.01389 c -1.991668,3.57595 -6.326812,12.25943 -7.939932,15.90402 -2.516584,5.68582 -5.306096,12.91888 -7.21712,18.71362 -0.756469,2.29382 -0.8526466,2.5022 -1.1548853,2.5022 -0.2762562,0 -0.3141983,-0.0514 -0.234085,-0.31718 z"
   style="fill:#666666;stroke-width:0.140969" /><path
   id="path127"
   d=""
   style="fill:#666666;stroke-width:0.140969" /><path
   id="path129"
   d="m 64.790608,120.5516 c 0,-0.0204 1.084003,-1.79342 1.59506,-2.60887 3.949531,-6.3019 8.281712,-12.21805 13.154899,-17.964719 0.424992,-0.501169 0.868397,-1.016978 1.549569,-1.802601 l 0.237885,-0.274362 0.242661,-0.0012 0.242662,-0.0012 -0.525295,0.612333 c -3.144735,3.665799 -5.978979,7.272999 -8.746745,11.132139 -2.464429,3.4362 -4.724469,6.86775 -7.000935,10.62994 l -0.173264,0.28634 h -0.288248 c -0.158537,0 -0.288249,-0.004 -0.288249,-0.008 z"
   style="fill:#666666;stroke-width:0.0176211" /><path
   id="path131"
   d="m 54.183824,142.03418 c 0,-0.14776 1.374447,-3.38289 2.468838,-5.81109 1.951124,-4.32908 5.602766,-11.37316 7.646703,-14.75061 0.358107,-0.59175 0.579934,-0.85898 0.731462,-0.88117 0.119616,-0.0175 0.217483,-0.0126 0.217483,0.0109 0,0.0235 -0.454418,0.8228 -1.009817,1.77625 -3.170564,5.44286 -6.164601,11.40224 -8.758532,17.43315 -0.645353,1.50045 -1.019504,2.25346 -1.13039,2.27502 -0.09116,0.0177 -0.165747,-0.006 -0.165747,-0.0524 z"
   style="fill:#666666;stroke-width:0.0996801" /><path
   id="path133"
   d="m 81.65515,97.623483 c 3.915731,-4.594161 14.567471,-15.109055 19.77702,-19.52294 3.42208,-2.899422 7.19862,-5.587868 14.50345,-10.324745 16.01508,-10.385112 32.25595,-17.184605 52.33203,-21.909622 5.94068,-1.398174 11.30654,-2.209457 15.20121,-2.298326 l 1.7444,-0.0398 -1.14632,0.147462 c -2.91764,0.375323 -5.72986,0.78264 -7.91652,1.146614 -23.35099,3.886823 -45.78007,13.093987 -65.29849,26.805111 -9.93545,6.979368 -19.120931,15.142485 -27.399685,24.350038 -0.924258,1.02795 -1.749435,1.869001 -1.833727,1.869001 -0.126964,0 -0.120679,-0.03822 0.03663,-0.222789 z"
   style="fill:#666666;stroke-width:0.0996801" /><path
   id="path135"
   d="M 336.41172,51.646758 C 318.99959,36.267524 298.86472,23.827387 277.46732,15.228521 249.35551,3.9313703 219.2509,-0.8664516 189.00127,1.129537 c -1.31578,0.08682 -3.0091,0.2118806 -3.76293,0.2779124 -0.75383,0.066032 -1.37056,0.096241 -1.37052,0.067132 5e-5,-0.029109 -1.08771,-0.043319 -2.41724,-0.031576 -1.32952,0.011743 -2.37246,0.00226 -2.31764,-0.021082 0.1472,-0.06266 5.86901,-0.61587571 8.17377,-0.79028484 8.6028,-0.65100391 18.65284,-0.74526612 26.96345,-0.25289787 27.8253,1.64853011 53.98683,8.61555291 78.64756,20.94446931 15.84845,7.923284 29.94208,17.408967 43.43559,29.234202 l 2.01852,1.76896 v 0.489375 c 0,0.269157 -0.0186,0.489377 -0.0413,0.489377 -0.0227,0 -0.88617,-0.746265 -1.91884,-1.658366 z"
   style="fill:#666666;stroke-width:0.0996801" /><path
   id="path137"
   d="m 326.51258,101.37713 c -1.38842,-1.714586 -3.67942,-4.36893 -5.41625,-6.275288 -23.19882,-25.463055 -53.54049,-42.688986 -86.95439,-49.366779 -4.45887,-0.891109 -8.12549,-1.472235 -13.24306,-2.098907 l -1.59488,-0.1953 1.14632,0.05375 c 2.85028,0.133646 8.86175,0.828899 12.00572,1.388512 5.87751,1.046173 14.97304,3.543123 22.33048,6.130278 28.86886,10.151379 53.50366,27.308094 72.457,50.462114 l 0.87715,1.07156 -0.3319,-0.002 c -0.30259,-0.002 -0.4153,-0.10491 -1.27619,-1.16802 z"
   style="fill:#666666;stroke-width:0.0996801" /><path
   id="path139"
   d=""
   style="fill:#666666;stroke-width:0.0996801" /><path
   id="path141"
   d="m 389.03155,125.17416 c -2.83618,-6.89685 -7.50081,-16.33268 -11.43229,-23.12577 -7.90962,-13.666794 -16.9577,-25.865156 -27.68948,-37.330185 -2.90802,-3.106713 -7.04286,-7.186317 -10.91121,-10.765445 l -0.64641,-0.598081 0.0498,-0.471105 0.0498,-0.471105 1.64472,1.512394 c 2.25399,2.072647 7.89319,7.674929 10.1621,10.095582 15.792,16.848135 28.34111,35.71619 37.65672,56.618275 0.91784,2.05943 2.41993,5.60638 2.41993,5.71429 0,0.0369 -0.17806,0.0671 -0.39569,0.0671 h -0.39568 z"
   style="fill:#666666;stroke-width:0.0996801" /><path
   id="path143"
   d="m 343.04518,125.82208 c -3.68258,-6.79882 -8.96805,-14.82824 -14.00896,-21.28169 -0.74942,-0.95942 -1.396,-1.80047 -1.43685,-1.869 -0.0527,-0.0883 0.0115,-0.1246 0.22047,-0.1246 0.25602,0 0.40541,0.14078 1.13707,1.07156 4.24527,5.40061 8.28318,11.3106 11.86725,17.36925 0.82852,1.40056 3.06024,5.36442 3.06024,5.43543 0,0.0224 -0.0634,0.0164 -0.1408,-0.0133 -0.0843,-0.0323 -0.15519,0.0189 -0.17665,0.12773 -0.0233,0.11832 -0.20545,-0.13136 -0.52177,-0.71536 z"
   style="fill:#666666;stroke-width:0.0996801" /></svg>
