<?xml version="1.0" encoding="iso-8859-1"?>
<!-- Generator: Adobe Illustrator 19.0.0, SVG Export Plug-In . SVG Version: 6.00 Build 0)  -->
<svg version="1.1" id="Layer_1" xmlns="http://www.w3.org/2000/svg" xmlns:xlink="http://www.w3.org/1999/xlink" x="0px" y="0px"
	 viewBox="0 0 470 470" style="enable-background:new 0 0 470 470;" xml:space="preserve">
<g>
	<g>
		<path style="fill:#EA4640;" d="M235,10c124.297,0,225,100.699,225,225c0,124.297-100.703,225-225,225
			C110.698,460,10,359.297,10,235C10,110.699,110.698,10,235,10z"/>
	</g>
	<g id="XMLID_21_">
		<g>
			<rect x="180" y="140" style="fill:#FFFFFF;" width="110" height="120"/>
			<polygon style="fill:#E7ECED;" points="315,260 320,295 150,295 155,260 180,260 290,260 			"/>
			<polygon style="fill:#E7ECED;" points="325,100 320,140 290,140 180,140 150,140 145,100 			"/>
		</g>
		<g>
			<path style="fill:#231F20;" d="M401.182,68.816C356.805,24.44,297.787,0,235,0C172.211,0,113.192,24.44,68.816,68.816
				C24.439,113.193,0,172.211,0,235c0,62.787,24.439,121.805,68.816,166.182C113.193,445.56,172.211,470,235,470
				c62.787,0,121.805-24.44,166.183-68.817C445.56,356.805,470,297.787,470,235C470,172.212,445.56,113.193,401.182,68.816z
				 M387.04,387.04C346.44,427.641,292.444,450,235,450c-57.446,0-111.442-22.359-152.042-62.96C42.359,346.44,20,292.445,20,235
				c0-57.446,22.359-111.442,62.958-152.042C123.557,42.359,177.553,20,235,20c57.445,0,111.44,22.359,152.04,62.959
				S450,177.554,450,235C450,292.444,427.641,346.44,387.04,387.04z"/>
			<path style="fill:#231F20;" d="M325,90H145c-2.868,0-5.599,1.231-7.497,3.382c-1.898,2.15-2.782,5.012-2.426,7.858l5,40
				c0.626,5.004,4.879,8.76,9.923,8.76h20v100h-15c-4.977,0-9.196,3.659-9.899,8.586l-5,35c-0.41,2.87,0.445,5.776,2.345,7.966
				c1.899,2.19,4.656,3.448,7.555,3.448h75v85h20v-85h75c2.899,0,5.655-1.258,7.555-3.448c1.899-2.19,2.755-5.096,2.345-7.966l-5-35
				C324.196,253.659,319.977,250,315,250h-15V150h20c5.043,0,9.297-3.755,9.923-8.76l5-40c0.355-2.846-0.528-5.708-2.426-7.858
				C330.599,91.231,327.868,90,325,90z M308.47,285H161.53l2.143-15h142.654L308.47,285z M190,250V150h90v100H190z M311.172,130
				H158.828l-2.5-20h157.345L311.172,130z"/>
		</g>
	</g>
</g>
<g>
</g>
<g>
</g>
<g>
</g>
<g>
</g>
<g>
</g>
<g>
</g>
<g>
</g>
<g>
</g>
<g>
</g>
<g>
</g>
<g>
</g>
<g>
</g>
<g>
</g>
<g>
</g>
<g>
</g>
</svg>
