<?xml version="1.0" encoding="UTF-8" standalone="no"?>
<svg
   xmlns:dc="http://purl.org/dc/elements/1.1/"
   xmlns:cc="http://creativecommons.org/ns#"
   xmlns:rdf="http://www.w3.org/1999/02/22-rdf-syntax-ns#"
   xmlns:svg="http://www.w3.org/2000/svg"
   xmlns="http://www.w3.org/2000/svg"
   xmlns:sodipodi="http://sodipodi.sourceforge.net/DTD/sodipodi-0.dtd"
   xmlns:inkscape="http://www.inkscape.org/namespaces/inkscape"
   id="reg"
   enable-background="new 0 0 24 24"
   height="62"
   viewBox="0 0 2.34375 2.90625"
   width="50"
   version="1.1"
   sodipodi:docname="pinterest-italic-sm.svg"
   inkscape:version="1.0 (4035a4fb49, 2020-05-01)">
  <metadata
     id="metadata30">
    <rdf:RDF>
      <cc:Work
         rdf:about="">
        <dc:format>image/svg+xml</dc:format>
        <dc:type
           rdf:resource="http://purl.org/dc/dcmitype/StillImage" />
        <dc:title></dc:title>
      </cc:Work>
    </rdf:RDF>
  </metadata>
  <defs
     id="defs28" />
  <sodipodi:namedview
     inkscape:document-rotation="0"
     pagecolor="#ffffff"
     bordercolor="#666666"
     borderopacity="1"
     objecttolerance="10"
     gridtolerance="10"
     guidetolerance="10"
     inkscape:pageopacity="0"
     inkscape:pageshadow="2"
     inkscape:window-width="1920"
     inkscape:window-height="1058"
     id="namedview26"
     showgrid="false"
     inkscape:zoom="1.6953125"
     inkscape:cx="281.95392"
     inkscape:cy="184.03687"
     inkscape:window-x="-8"
     inkscape:window-y="-8"
     inkscape:window-maximized="1"
     inkscape:current-layer="reg" />
  <path
     d="M 1.2128726,0.07161255 C -0.1073624,0.07173267 -0.1150501,1.5059614 0.3636268,1.6213964 0.4306536,1.6376124 0.4355784,1.6332854 0.4909536,1.4250003 0.4952776,1.4078233 0.4931156,1.3930483 0.4790617,1.3769523 0.1614653,1.0157526 0.4272902,0.36506453 1.1673469,0.36506453 c 1.0642616,0 0.8654634,1.44840297 0.185225,1.44840297 -0.1753749,0 -0.3059442,-0.1353741 -0.2646243,-0.3028221 0.05009,-0.1995184 0.1482286,-0.4139321 0.1482286,-0.55771541 0,-0.36240101 -0.548827,-0.30858732 -0.548827,0.17153081 0,0.1483467 0.053333,0.2485277 0.053333,0.2485277 0,0 -0.1765759,0.7017392 -0.2093686,0.8329098 -0.055495,0.2219807 0.00745,0.581259 0.012973,0.6121289 0.00336,0.017058 0.022823,0.022463 0.033754,0.00841 0.3049838,-0.3925506 0.36372271,-0.846723 0.40179961,-0.937414 0.058859,0.1045041 0.22858819,0.1919517 0.40948769,0.1919517 1.1529094,0 1.3676828,-2.00936125 -0.176455,-2.00936125 z"
     fill="#f44336"
     id="path21"
     style="stroke-width:0.12012" />
  <path
     d="M 0.548611,1.3332296 C 0.4628455,1.1722689 0.4744972,0.96434178 0.578761,0.79040861 0.8729341,0.30056064 1.7842822,0.3830828 1.7842822,1.0553925 c 0,0.5966337 -0.4100886,0.7470241 -0.5657642,0.6207789 -0.136816,-0.1105103 0.1042645,-0.4333916 0.1042645,-0.71243023 0,-0.47579393 -0.7000577,-0.42161989 -0.7000577,0.16780713 0,0.1160364 0.027748,0.2054046 0.045886,0.25129 -0.032432,0.132733 -0.1639633,0.6730303 -0.1911104,0.7853425 -0.00793,0.032793 -0.073633,0.6479259 0.075555,0.7183152 0.1975968,0.093333 0.43327051,-0.6246221 0.483242,-0.8318276 0.093212,0.063302 0.2174161,0.102822 0.3415001,0.102822 C 2.5922068,2.1573697 2.7896839,0.01155273 1.2108297,0.01155273 v 1.2012e-4 c -1.1835379,0 -1.488762,1.21224775 -0.9684036,1.69392825 C 0.3847678,1.83653 0.6235656,1.4736491 0.548611,1.3332296 Z M 1.2108297,0.19173218 c 1.3374134,0 1.1481047,1.78545852 0.1670877,1.78545852 -0.1431829,0 -0.2718306,-0.073153 -0.3088274,-0.1408996 -0.016697,-0.030511 -0.046967,-0.048049 -0.084205,-0.046848 -0.15567461,0.00889 -0.062222,0.3212 -0.34498311,0.7995167 -0.025946,-0.4737522 0.06018,-0.4601778 0.2111704,-1.1930291 0.01045,-0.042882 -0.1338134,-0.3211993 0.03051,-0.50318056 0.03988,-0.044324 0.092132,-0.0696694 0.14318281,-0.0696694 0.2420419,0 0.042281,0.40960796 -0.019821,0.66534286 C 0.9286691,1.8073413 1.2563557,1.9917254 1.5666255,1.8438578 1.6862643,1.7866808 1.9645818,1.595571 1.9645818,1.0553925 1.9645818,0.19929968 0.8127541,0.05095197 0.4245274,0.69767626 0.2897532,0.92205971 0.2748583,1.1932899 0.3847678,1.4083029 0.3810438,1.4361719 0.3495728,1.4904659 0.3209843,1.5265015 -0.0151105,1.1156925 0.2369005,0.19185232 1.2108297,0.19173218 Z"
     id="path23"
     style="stroke-width:0.12012" />
</svg>
