<?xml version="1.0" encoding="UTF-8" standalone="no"?>
<svg
   xmlns:dc="http://purl.org/dc/elements/1.1/"
   xmlns:cc="http://creativecommons.org/ns#"
   xmlns:rdf="http://www.w3.org/1999/02/22-rdf-syntax-ns#"
   xmlns:svg="http://www.w3.org/2000/svg"
   xmlns="http://www.w3.org/2000/svg"
   xmlns:sodipodi="http://sodipodi.sourceforge.net/DTD/sodipodi-0.dtd"
   xmlns:inkscape="http://www.inkscape.org/namespaces/inkscape"
   inkscape:version="1.0 (4035a4fb49, 2020-05-01)"
   sodipodi:docname="search.svg"
   xml:space="preserve"
   style="enable-background:new 0 0 37.166 37.166;"
   viewBox="0 0 37.166 37.166"
   height="37.166px"
   width="37.166px"
   y="0px"
   x="0px"
   id="Capa_1"
   version="1.1"><metadata
   id="metadata41"><rdf:RDF><cc:Work
       rdf:about=""><dc:format>image/svg+xml</dc:format><dc:type
         rdf:resource="http://purl.org/dc/dcmitype/StillImage" /></cc:Work></rdf:RDF></metadata><defs
   id="defs39" /><sodipodi:namedview
   inkscape:current-layer="Capa_1"
   inkscape:window-maximized="1"
   inkscape:window-y="-8"
   inkscape:window-x="-8"
   inkscape:cy="18.583"
   inkscape:cx="18.583"
   inkscape:zoom="12.215466"
   showgrid="false"
   id="namedview37"
   inkscape:window-height="1058"
   inkscape:window-width="1920"
   inkscape:pageshadow="2"
   inkscape:pageopacity="0"
   guidetolerance="10"
   gridtolerance="10"
   objecttolerance="10"
   borderopacity="1"
   bordercolor="#666666"
   pagecolor="#ffffff" />
<g
   id="g4">
	<path
   id="path2"
   d="M35.829,32.045l-6.833-6.833c-0.513-0.513-1.167-0.788-1.836-0.853c2.06-2.567,3.298-5.819,3.298-9.359   c0-8.271-6.729-15-15-15c-8.271,0-15,6.729-15,15c0,8.271,6.729,15,15,15c3.121,0,6.021-0.96,8.424-2.598   c0.018,0.744,0.305,1.482,0.872,2.052l6.833,6.833c0.585,0.586,1.354,0.879,2.121,0.879s1.536-0.293,2.121-0.879   C37.001,35.116,37.001,33.217,35.829,32.045z M15.458,25c-5.514,0-10-4.484-10-10c0-5.514,4.486-10,10-10c5.514,0,10,4.486,10,10   C25.458,20.516,20.972,25,15.458,25z" />
</g>
<g
   id="g6">
</g>
<g
   id="g8">
</g>
<g
   id="g10">
</g>
<g
   id="g12">
</g>
<g
   id="g14">
</g>
<g
   id="g16">
</g>
<g
   id="g18">
</g>
<g
   id="g20">
</g>
<g
   id="g22">
</g>
<g
   id="g24">
</g>
<g
   id="g26">
</g>
<g
   id="g28">
</g>
<g
   id="g30">
</g>
<g
   id="g32">
</g>
<g
   id="g34">
</g>
<path
   id="path43"
   d="m 32.94425,37.018022 c -0.205794,-0.05818 -0.53734,-0.202726 -0.736771,-0.321219 -0.199431,-0.118493 -2.027834,-1.884906 -4.063118,-3.925362 -3.244497,-3.252745 -3.727606,-3.769375 -3.920358,-4.192385 -0.120914,-0.265355 -0.237934,-0.64295 -0.260043,-0.8391 -0.02211,-0.19615 -0.05792,-0.356636 -0.07958,-0.356636 -0.02166,0 -0.339206,0.179958 -0.705658,0.399907 -1.369839,0.822196 -2.495851,1.294189 -4.022678,1.686197 -1.506028,0.386668 -2.394581,0.478883 -4.153851,0.431093 -2.241982,-0.0609 -3.954015,-0.461963 -5.861365,-1.373085 C 5.9338632,26.995498 3.5905271,24.685859 2.0413906,21.530084 1.4354725,20.295757 1.0949415,19.317653 0.80583974,17.981226 0.52200148,16.66913 0.44965456,14.348136 0.6498035,12.975355 1.1371277,9.6328976 2.5820471,6.7494916 4.9239737,4.4460437 6.3181485,3.0747757 7.3847517,2.320544 9.06335,1.5189487 c 4.173722,-1.99311285 8.798368,-1.9673458 12.957915,0.072197 6.451938,3.1635676 9.728511,10.4068153 7.850088,17.3535333 -0.459549,1.699484 -1.592208,3.977944 -2.53976,5.108987 -0.106625,0.127272 -0.193864,0.260709 -0.193864,0.296525 0,0.03581 0.154311,0.08979 0.342914,0.119954 0.807527,0.129129 1.08832,0.36961 4.958753,4.246867 4.276196,4.283736 4.15356,4.122498 4.15356,5.460973 0,0.679535 -0.02795,0.834606 -0.221402,1.228502 -0.620102,1.2626 -2.137595,1.976132 -3.427304,1.611535 z M 17.200706,24.882559 C 23.778179,23.735544 27.403035,16.562734 24.438569,10.560383 23.415898,8.4897124 21.963486,7.0373006 19.892815,6.0146292 15.465925,3.8282587 10.163992,5.1573721 7.2791835,9.1766735 4.81637,12.608025 4.8257258,17.400706 7.3019677,20.84815 c 0.5326619,0.741576 1.6515985,1.851153 2.3988496,2.378783 1.0953277,0.773405 2.6300137,1.411475 3.9703767,1.650746 0.892372,0.159299 2.63023,0.161702 3.529512,0.0049 z"
   style="fill:#a0a0a0;stroke:none;stroke-width:0.0818634" /></svg>
