<?xml version="1.0" encoding="UTF-8" standalone="no"?>
<svg
   xmlns:dc="http://purl.org/dc/elements/1.1/"
   xmlns:cc="http://creativecommons.org/ns#"
   xmlns:rdf="http://www.w3.org/1999/02/22-rdf-syntax-ns#"
   xmlns:svg="http://www.w3.org/2000/svg"
   xmlns="http://www.w3.org/2000/svg"
   xmlns:sodipodi="http://sodipodi.sourceforge.net/DTD/sodipodi-0.dtd"
   xmlns:inkscape="http://www.inkscape.org/namespaces/inkscape"
   inkscape:version="1.0 (4035a4fb49, 2020-05-01)"
   sodipodi:docname="search-sm-gr.svg"
   xml:space="preserve"
   viewBox="0 0 15 15"
   height="15"
   width="15"
   y="0px"
   x="0px"
   id="Capa_1"
   version="1.1"><metadata
   id="metadata41"><rdf:RDF><cc:Work
       rdf:about=""><dc:format>image/svg+xml</dc:format><dc:type
         rdf:resource="http://purl.org/dc/dcmitype/StillImage" /><dc:title></dc:title></cc:Work></rdf:RDF></metadata><defs
   id="defs39" /><sodipodi:namedview
   showguides="false"
   inkscape:current-layer="Capa_1"
   inkscape:window-maximized="0"
   inkscape:window-y="45"
   inkscape:window-x="969"
   inkscape:cy="22.287986"
   inkscape:cx="24.592021"
   inkscape:zoom="12.215466"
   showgrid="false"
   id="namedview37"
   inkscape:window-height="1009"
   inkscape:window-width="879"
   inkscape:pageshadow="2"
   inkscape:pageopacity="0"
   guidetolerance="10"
   gridtolerance="10"
   objecttolerance="10"
   borderopacity="1"
   bordercolor="#666666"
   pagecolor="#ffffff"
   inkscape:document-rotation="0" />
<g
   transform="matrix(0.3862069,0,0,0.3862069,0.28111727,0)"
   id="g4">
	<path
   id="path2"
   d="M 35.829,32.045 28.996,25.212 C 28.483,24.699 27.829,24.424 27.16,24.359 29.22,21.792 30.458,18.54 30.458,15 c 0,-8.271 -6.729,-15 -15,-15 -8.271,0 -15,6.729 -15,15 0,8.271 6.729,15 15,15 3.121,0 6.021,-0.96 8.424,-2.598 0.018,0.744 0.305,1.482 0.872,2.052 l 6.833,6.833 c 0.585,0.586 1.354,0.879 2.121,0.879 0.767,0 1.536,-0.293 2.121,-0.879 1.172,-1.171 1.172,-3.07 0,-4.242 z M 15.458,25 c -5.514,0 -10,-4.484 -10,-10 0,-5.514 4.486,-10 10,-10 5.514,0 10,4.486 10,10 0,5.516 -4.486,10 -10,10 z" />
</g>
<g
   id="g6">
</g>
<g
   id="g8">
</g>
<g
   id="g10">
</g>
<g
   id="g12">
</g>
<g
   id="g14">
</g>
<g
   id="g16">
</g>
<g
   id="g18">
</g>
<g
   id="g20">
</g>
<g
   id="g22">
</g>
<g
   id="g24">
</g>
<g
   id="g26">
</g>
<g
   id="g28">
</g>
<g
   id="g30">
</g>
<g
   id="g32">
</g>
<g
   id="g34">
</g>
<path
   id="path43"
   d="m 13.004415,14.296612 c -0.07948,-0.02247 -0.207526,-0.07828 -0.284549,-0.124053 -0.07702,-0.04575 -0.783164,-0.727965 -1.569202,-1.516002 -1.2530486,-1.256234 -1.4396261,-1.45576 -1.5140663,-1.61913 -0.046711,-0.102476 -0.091889,-0.248309 -0.100433,-0.324065 -0.00852,-0.07576 -0.022363,-0.137733 -0.030733,-0.137733 -0.00833,0 -0.1310044,0.06949 -0.2725299,0.154447 -0.529042,0.317537 -0.9639179,0.499823 -1.5535881,0.651219 C 7.0976817,11.530626 6.754515,11.566243 6.0750714,11.547788 5.209201,11.524269 4.5480031,11.369371 3.8113693,11.017493 2.5728162,10.42585 1.6678036,9.5338477 1.0695163,8.3150698 0.83550647,7.8383635 0.70399107,7.4606115 0.59233811,6.9444764 0.4827178,6.4377316 0.45477694,5.5413498 0.53207588,5.0111723 0.7202835,3.7202915 1.2783218,2.6067002 2.1827901,1.7170927 2.72123,1.1874997 3.1331592,0.89621009 3.7814456,0.58662849 5.3933631,-0.18312544 7.1794381,-0.17317403 8.7858806,0.61451148 11.277667,1.8363034 12.5431,4.633694 11.817642,7.3165675 c -0.177483,0.6563528 -0.614924,1.5363068 -0.980876,1.9731234 -0.04117,0.049154 -0.07486,0.1006897 -0.07486,0.1145197 0,0.013822 0.05959,0.034663 0.132436,0.046331 0.31187,0.049874 0.420317,0.1427497 1.915103,1.6401734 1.651495,1.654407 1.604133,1.592133 1.604133,2.109064 0,0.262439 -0.01078,0.322331 -0.08551,0.474456 -0.239485,0.487625 -0.825553,0.763196 -1.323646,0.622383 z M 6.9241471,9.6098147 C 9.4644133,9.1668335 10.864359,6.3966442 9.7194636,4.0784934 9.3244996,3.2787855 8.7635675,2.7178541 7.9638615,2.3228911 6.2541656,1.4785 4.2065216,1.9918128 3.0923882,3.5440947 c -0.9511557,1.3252099 -0.9475423,3.1761776 0.00879,4.5076057 0.2057177,0.2864002 0.6378585,0.7149254 0.9264522,0.9187039 0.4230234,0.2986907 1.015727,0.5451195 1.5333884,0.6375281 0.3446381,0.061524 1.0158116,0.062442 1.3631188,0.00197 z"
   style="fill:#a0a0a0;stroke:none;stroke-width:0.0316163" /><path
   id="path24"
   d="M 12.323182,13.734641 C 11.352269,12.887861 9.6646519,11.071325 9.6076119,10.811624 9.5453294,10.528053 9.4748335,10.525825 9.0188959,10.793023 8.0007504,11.389696 6.3920236,11.636874 5.1171883,11.392514 4.7972485,11.331188 4.4894314,11.285305 4.4331503,11.290552 4.3768692,11.2958 4.330821,11.26983 4.330821,11.232843 c 0,-0.03699 -0.082887,-0.0917 -0.1841927,-0.121592 C 3.376398,10.884016 2.0121765,9.7591422 1.4746921,8.9080965 0.7463402,7.7548325 0.5278085,6.9297613 0.58201314,5.5377675 0.64318053,3.9669678 1.0828241,2.9577202 2.2023717,1.818066 3.4693058,0.52837825 5.1912767,-0.10247334 6.8700796,0.10803079 9.0975585,0.38733302 10.935483,1.8756008 11.66692,3.9922937 c 0.318676,0.9222085 0.370136,2.2753585 0.12106,3.1832499 -0.16675,0.6078076 -0.56069,1.470206 -0.899092,1.9682541 -0.183058,0.2694183 -0.159723,0.3734921 0.08374,0.3734921 0.166057,0 2.607994,2.3294612 3.128817,2.9847052 0.605235,0.761439 0.106515,1.763374 -0.877732,1.763374 -0.242155,0 -0.395878,-0.0906 -0.900531,-0.530728 z M 7.6760742,9.4427261 C 8.2420986,9.2158744 8.7111025,8.8904762 9.135228,8.4303538 9.4600752,8.0779366 9.7915951,7.5525674 9.6891307,7.5525674 c -0.026885,0 0.00803,-0.056916 0.077598,-0.1264792 0.2184428,-0.2184434 0.3346683,-0.7857619 0.3346683,-1.6335847 0,-0.8478227 -0.1162255,-1.4151412 -0.3346683,-1.6335847 -0.069564,-0.069564 -0.1044831,-0.1264791 -0.077598,-0.1264791 0.095243,0 -0.2144437,-0.5057039 -0.5125322,-0.8369409 C 8.809495,2.7875721 8.2661951,2.3818438 8.1681755,2.4424232 c -0.0394,0.024351 -0.071637,0.0098 -0.071637,-0.03234 0,-0.176168 -0.8682042,-0.447279 -1.5590323,-0.4868335 C 5.2600359,1.8501062 4.3708729,2.1788126 3.5062103,3.0438617 2.9571588,3.5931586 2.526821,4.3198245 2.4925459,4.7555296 2.4824934,4.8833171 2.453449,5.0215587 2.4280029,5.0627332 c -0.065082,0.1053101 -0.070748,1.3450713 -0.00662,1.4488309 0.029088,0.047065 0.060465,0.1819054 0.069727,0.2996456 0.063027,0.8012043 1.4355058,2.4340503 2.0871875,2.4831406 0.089013,0.0067 0.1618418,0.040075 0.1618418,0.074156 0,0.034081 0.1749831,0.1163386 0.3888513,0.1827953 C 5.708731,9.731447 7.104087,9.6719667 7.676074,9.4427261 Z"
   style="fill:#666666;stroke-width:0.0818634" /><path
   id="path26"
   d="M 12.946566,14.13939 C 12.465243,13.937009 9.8251648,11.239773 9.6443768,10.765707 9.5514257,10.521971 9.4159057,10.533011 8.8222591,10.832683 7.7696263,11.36405 6.2158461,11.558297 4.9158007,11.321051 3.9621606,11.14702 2.619147,10.261586 1.8129177,9.2753514 1.3598421,8.7211188 0.85247534,7.6979155 0.72410184,7.0795437 0.57754749,6.3735951 0.66525283,4.6079553 0.87982161,3.9446714 1.3733957,2.4189149 2.9341704,0.93198498 4.6355125,0.36667313 5.1786158,0.186214 5.4167104,0.15512877 6.2546117,0.15528619 c 0.8436432,1.5882e-4 1.0748399,0.0308632 1.6372687,0.21744218 0.9278009,0.30778669 1.6233945,0.74064683 2.3325106,1.45149643 0.675089,0.6767377 1.058708,1.2646593 1.374541,2.1065773 0.171057,0.455988 0.213486,0.7374763 0.244174,1.6199384 0.04946,1.4222661 -0.146431,2.1646477 -0.897834,3.4025593 -0.279732,0.4608494 -0.283565,0.5325716 -0.03184,0.5957514 0.26307,0.066026 3.103841,2.8381148 3.27236,3.1932418 0.0728,0.153416 0.132364,0.379536 0.132364,0.502493 0,0.264419 -0.271601,0.734309 -0.472372,0.817237 -0.363079,0.149969 -0.664812,0.175929 -0.899222,0.07737 z M 7.1862153,9.6010164 C 8.266618,9.3961229 9.2304671,8.6176704 9.7811804,7.5051947 L 10.102193,6.8567282 10.101948,5.7925035 C 10.101702,4.7325785 10.100449,4.7257227 9.7972674,4.0955752 9.4799532,3.4361029 8.687128,2.5432217 8.319391,2.4312152 8.2193349,2.4007398 8.0811354,2.3265548 8.0122812,2.2663597 7.7924021,2.0741326 6.9386217,1.9039904 6.1938982,1.9039904 c -0.822935,0 -1.5124796,0.1910177 -2.0671529,0.572643 C 3.6101038,2.832092 2.9007703,3.6409112 2.6400818,4.1718046 2.4173907,4.6253163 2.4070803,4.6973655 2.408155,5.7925035 c 0.00111,1.128224 0.00517,1.1537441 0.2606222,1.6372687 0.4114701,0.7788364 1.3876857,1.840737 1.6937663,1.8424316 0.05009,2.456e-4 0.2015883,0.059786 0.3366629,0.1322397 0.1350747,0.072455 0.3376867,0.161158 0.4502489,0.1971181 0.293614,0.093801 1.5410366,0.093467 2.03676,-5.73e-4 z"
   style="fill:#666666;stroke-width:0.0818634" /><path
   id="path28"
   d="M 12.946566,14.13939 C 12.465243,13.937009 9.8251648,11.239773 9.6443768,10.765707 9.5514257,10.521971 9.4159057,10.533011 8.8222591,10.832683 7.7689583,11.364388 6.2007514,11.561078 4.9158007,11.322646 4.001482,11.152988 2.7425291,10.350513 1.9126402,9.4083893 1.4533273,8.8869577 0.85791496,7.724118 0.72676621,7.092378 0.57752148,6.3734699 0.66303528,4.6148103 0.87982161,3.9446714 1.3751457,2.4135053 2.9281383,0.93398924 4.6355125,0.36667313 5.1786158,0.186214 5.4167104,0.15512877 6.2546117,0.15528619 c 0.8436432,1.5882e-4 1.0748399,0.0308632 1.6372687,0.21744218 0.9278009,0.30778669 1.6233945,0.74064683 2.3325106,1.45149643 0.67009,0.6717263 1.051506,1.2538336 1.380301,2.1065773 0.196985,0.5108915 0.212896,0.6491816 0.214198,1.8617014 0.0014,1.2882887 -0.0029,1.3205781 -0.263309,1.9647224 -0.145593,0.3601992 -0.394022,0.8685744 -0.552063,1.129722 -0.158043,0.2611476 -0.287349,0.5058145 -0.287349,0.5437034 0,0.037889 0.08877,0.091169 0.197267,0.1183999 0.26307,0.066026 3.103841,2.8381148 3.27236,3.1932418 0.0728,0.153416 0.132364,0.379536 0.132364,0.502493 0,0.264419 -0.271601,0.734309 -0.472372,0.817237 -0.363079,0.149969 -0.664812,0.175929 -0.899222,0.07737 z M 7.9558411,9.3294566 c 0.7962701,-0.393538 1.4347598,-1.0353563 1.83574,-1.845311 L 10.102193,6.8567282 V 5.7925035 4.7282789 L 9.7953084,4.1084051 C 9.2377603,2.9822198 8.2606318,2.2048736 7.1206362,1.9805932 6.8304879,1.92351 6.3093278,1.8991652 5.8896855,1.9230921 5.299437,1.9567465 5.0576587,2.0133784 4.6101282,2.2228031 3.9144908,2.5483312 3.0076133,3.4444034 2.6541698,4.1554567 2.4199364,4.6266849 2.4100666,4.6908913 2.4085795,5.7531129 c -0.00153,1.0930428 0.00186,1.1136281 0.2749032,1.6684323 0.3463394,0.7037411 1.2827474,1.7173865 1.7151111,1.8565781 0.165337,0.053228 0.3374512,0.1254942 0.3824761,0.1605923 0.2155994,0.1680665 0.7362712,0.2359435 1.6184336,0.210985 0.9139145,-0.025856 0.9940498,-0.042346 1.5563376,-0.320244 z"
   style="fill:#808080;stroke-width:0.0818634" /><path
   d="m 7.0332031,0.2421875 c -0.046439,0.0168142 -0.098067,0.0284222 -0.1621093,0.0371094 -0.1357517,0.0184144 -0.323498,0.0253906 -0.578125,0.0253906 -0.3913446,0 -0.9180039,0.0423741 -1.1347657,0.0878906 C 4.228707,0.58775752 2.9204183,1.3528126 2.1914062,2.1328125 1.7774847,2.5756844 1.2675643,3.3430496 1.1542969,3.6679688 c -0.025066,0.071904 -0.054257,0.1371706 -0.083984,0.1894531 -0.014864,0.026141 -0.029853,0.048417 -0.048828,0.070312 -0.018976,0.021896 -0.0369327,0.059939 -0.11718752,0.060547 0.0339824,-2.572e-4 0.0611959,-0.019583 0.0703125,-0.029297 0.009117,-0.00971 0.009333,-0.01126 0.007813,-0.00781 -0.003041,0.00689 -0.0120498,0.033015 -0.0195313,0.072266 -0.0149629,0.078502 -0.0299077,0.2086659 -0.0410156,0.3808594 -0.0222158,0.3443869 -0.0330051,0.8640843 -0.0332031,1.5527343 -1.8331e-4,0.6372957 0.001798,0.9668678 0.03125,1.1894532 C 0.94937386,7.3690697 1.0041664,7.4918152 1.1210938,7.75 1.640675,8.897277 2.218587,9.6214298 3.140625,10.285156 c 1.0720938,0.771745 2.0963737,1.062623 3.375,0.958985 0.8204182,-0.0665 1.7284001,-0.293343 2.2441406,-0.554688 0.284667,-0.144252 0.4878759,-0.224971 0.6855469,-0.1875 0.197671,0.03747 0.3365388,0.190598 0.4921875,0.419922 0.068635,0.101123 0.273002,0.338539 0.539062,0.625 0.266061,0.286461 0.596512,0.627569 0.927735,0.960937 0.331223,0.333369 0.664626,0.660032 0.9375,0.916016 0.272874,0.255984 0.499956,0.448977 0.564453,0.488281 0.423854,0.258299 0.959506,0.08621 1.140625,-0.361328 0.0326,-0.08056 0.07258,-0.158587 0.111328,-0.224609 0.01741,-0.02966 0.04015,-0.04835 0.05664,-0.07227 -0.01902,-0.021 -0.03508,-0.04385 -0.04883,-0.06836 -0.03389,-0.06042 -0.0601,-0.132521 -0.07617,-0.212891 0.0015,0.0074 -0.0404,-0.08374 -0.117188,-0.1875 C 13.895871,12.681398 13.78625,12.547573 13.654297,12.396484 13.39039,12.094306 13.037211,11.71969 12.664062,11.34375 12.290914,10.96781 11.898711,10.591426 11.558594,10.285156 11.218477,9.9788866 10.92217,9.7401048 10.773438,9.6542969 c -0.04258,-0.024565 -0.09885,-0.061134 -0.126954,-0.1308594 -0.02811,-0.069726 -0.01766,-0.14006 0.0059,-0.21875 0.04705,-0.1573799 0.161225,-0.3881382 0.380859,-0.8300781 0.126561,-0.2546616 0.252661,-0.5232936 0.351563,-0.75 0.0989,-0.2267065 0.172442,-0.4192426 0.191406,-0.4902344 0.01644,-0.061542 0.04123,-0.2831171 0.05664,-0.5546875 0.01541,-0.2715704 0.02576,-0.6036981 0.02539,-0.9277344 C 11.656791,4.432417 11.537968,3.9363443 11.007812,3.0507812 10.439755,2.1019073 9.1715758,1.0262014 8.1992188,0.6640625 8.0884326,0.62280198 7.9867384,0.57867564 7.9101562,0.5390625 7.8718652,0.51925593 7.8402342,0.50224367 7.8125,0.48242188 c -0.013867,-0.009911 -0.026818,-0.0198237 -0.041016,-0.0351563 -0.00629,-0.006792 -0.012606,-0.0157952 -0.019531,-0.0273437 -0.011022,-0.002792 -0.024797,-0.005948 -0.044922,-0.005859 C 7.4730159,0.41508981 7.3204923,0.40866239 7.203125,0.375 7.1444413,0.3581688 7.091657,0.33235692 7.0507812,0.28710938 7.0391895,0.2742778 7.0413686,0.2569871 7.0332031,0.2421875 Z M 6.0234375,1.8007812 c 0.7725347,-0.027722 1.0429068,-0.00108 1.5351563,0.1484376 0.1645611,0.049984 0.3307182,0.1115692 0.46875,0.1738281 0.1380317,0.062259 0.2402273,0.1132742 0.3125,0.1855469 0.03536,0.03536 0.07353,0.062077 0.095703,0.074219 0.011086,0.00607 0.018021,0.00901 0.011719,0.00781 -0.0063,-0.0012 -0.04188,-0.00695 -0.076172,0.027344 0.041443,-0.041444 0.1008883,-0.045797 0.1347656,-0.039063 0.033877,0.00673 0.057769,0.01915 0.082031,0.033203 0.048524,0.028107 0.098085,0.067246 0.1542969,0.1171875 0.1124237,0.099882 0.2482727,0.2439964 0.3925781,0.4082031 0.288611,0.3284134 0.6019169,0.7347734 0.7695313,1.0371094 l 0.3398441,0.6132812 a 0.11922816,0.11922816 0 0 1 0.01563,0.058594 l 0.002,1.1289062 c 4.77e-4,0.4973418 -0.0037,0.7924644 -0.0293,1.0097656 -0.02562,0.2173013 -0.07786,0.3595742 -0.158203,0.5175782 C 9.5318538,8.3693877 8.8169451,9.1061906 7.9023438,9.5292969 7.6987597,9.6234776 7.5388181,9.6832021 7.3164062,9.7167969 7.0939944,9.7503917 6.8106747,9.760856 6.3378906,9.7695312 6.0431353,9.7749397 5.7538551,9.7719335 5.5214844,9.7636719 5.405299,9.7595411 5.3021321,9.7550107 5.2207031,9.7480469 5.1392742,9.741083 5.0855899,9.735161 5.0332031,9.71875 4.8131321,9.6498101 4.5452251,9.5233679 4.3105469,9.3886719 4.1932078,9.3213239 4.0837938,9.2512842 3.9941406,9.1855469 3.9044874,9.1198096 3.8350914,9.0626446 3.7871094,8.9941406 3.7562561,8.9500913 3.7214736,8.9116665 3.6972656,8.890625 3.6851616,8.8801043 3.675321,8.8747714 3.6757812,8.875 c 4.603e-4,2.286e-4 0.018063,0.015032 0.0625,-0.00195 -0.05325,0.020354 -0.090336,0.00485 -0.1152343,-0.00586 -0.024898,-0.01071 -0.045144,-0.022614 -0.064453,-0.037109 C 3.5199762,8.8010882 3.4820555,8.7631366 3.4375,8.7167969 3.348389,8.6241175 3.2403013,8.4976162 3.1289062,8.3535156 2.9061162,8.0653145 2.667171,7.7136383 2.5371094,7.4550781 2.428559,7.2392815 2.3629264,7.0871509 2.3261719,6.8730469 2.2894174,6.6589428 2.2803913,6.3895098 2.2714844,5.9179688 c -0.00966,-0.5112084 0.00592,-0.9249503 0.046875,-1.21875 0.020477,-0.1468999 0.046724,-0.2625581 0.083984,-0.3535157 0.01863,-0.045479 0.039503,-0.085898 0.072266,-0.1210937 0.014583,-0.015666 0.043221,-0.017528 0.064453,-0.029297 -0.00998,-0.059336 -0.00283,-0.118974 0.017578,-0.1738281 0.02919,-0.078443 0.076744,-0.1607487 0.1386719,-0.2519532 C 2.8191679,3.5871223 3.0012476,3.3737757 3.2128906,3.15625 3.6361767,2.7211985 4.1664699,2.2749237 4.578125,2.0761719 5.0015542,1.8717355 5.2205298,1.8295934 6.0234375,1.8007812 Z"
   inkscape:original="M 7.0605469 0.08203125 C 7.0318712 0.15309714 6.7971071 0.18554688 6.2929688 0.18554688 C 5.893713 0.18554688 5.3714093 0.22528913 5.1328125 0.27539062 C 4.1652809 0.47855685 2.8538976 1.2479168 2.1035156 2.0507812 C 1.6771466 2.5069711 1.1697594 3.2595913 1.0410156 3.6289062 C 0.99507637 3.7606876 0.93366096 3.8689182 0.90429688 3.8691406 C 0.81547597 3.8698131 0.76992814 4.5771194 0.76953125 5.9570312 C 0.7691645 7.2321194 0.77712367 7.2808234 1.0117188 7.7988281 C 1.5373279 8.959415 2.1337628 9.7086393 3.0703125 10.382812 C 4.1604841 11.16757 5.2233485 11.468817 6.5253906 11.363281 C 7.3602119 11.295615 8.2740542 11.068762 8.8144531 10.794922 C 9.3721535 10.512313 9.5364088 10.544095 9.8378906 10.988281 C 10.159554 11.462202 12.465842 13.783374 12.84375 14.013672 C 13.326797 14.308043 13.950033 14.110083 14.158203 13.595703 C 14.218836 13.445885 14.305936 13.296752 14.353516 13.263672 C 14.412856 13.222412 14.412789 13.203984 14.349609 13.203125 C 14.298961 13.202435 14.234711 13.087604 14.207031 12.949219 C 14.133565 12.581892 11.514491 9.9433844 10.833984 9.5507812 C 10.686009 9.46541 10.701729 9.4104751 11.140625 8.5273438 C 11.395674 8.0141427 11.643296 7.4457246 11.691406 7.265625 C 11.739516 7.0855255 11.778081 6.404814 11.777344 5.7519531 C 11.775924 4.4246701 11.645975 3.8865617 11.109375 2.9902344 C 10.522202 2.0094303 9.2518266 0.9294858 8.2402344 0.55273438 C 8.0263662 0.47308257 7.8515625 0.3827892 7.8515625 0.3515625 C 7.8515625 0.3203358 7.7858243 0.2945756 7.7070312 0.29492188 C 7.2456435 0.29694733 7.1135519 0.25896149 7.1074219 0.12304688 C 7.1035609 0.037463755 7.0852139 0.02090045 7.0605469 0.08203125 z M 6.0273438 1.9199219 C 6.7966252 1.8923164 7.038449 1.9151892 7.5234375 2.0625 C 7.8418856 2.1592256 8.171423 2.3081417 8.2558594 2.3925781 C 8.3402958 2.4770144 8.4307647 2.5262665 8.4550781 2.5019531 C 8.5540251 2.4030062 9.483201 3.460365 9.8007812 4.0332031 L 10.140625 4.6464844 L 10.142578 5.7753906 C 10.14353 6.7684101 10.122907 6.9448691 9.96875 7.2480469 C 9.435458 8.2968568 8.7399262 9.0109066 7.8515625 9.421875 C 7.4523458 9.6065581 7.2795402 9.6330762 6.3359375 9.6503906 C 5.750614 9.6611306 5.1809216 9.6407307 5.0683594 9.6054688 C 4.6563425 9.4763995 4.0114025 9.1065808 3.8847656 8.9257812 C 3.813227 8.8236451 3.7282145 8.7491428 3.6953125 8.7617188 C 3.5935692 8.8006081 2.8903234 7.8909744 2.6445312 7.4023438 C 2.4299671 6.9757933 2.408408 6.8574673 2.390625 5.9160156 C 2.3714591 4.9013233 2.4583448 4.2773438 2.6191406 4.2773438 C 2.6650866 4.2773437 2.6839123 4.2474224 2.6601562 4.2089844 C 2.5022037 3.953412 3.8636932 2.5539904 4.6308594 2.1835938 C 5.0469016 1.9827239 5.2271741 1.9486358 6.0273438 1.9199219 z "
   inkscape:radius="-0.11921624"
   sodipodi:type="inkscape:offset"
   style="fill:#808080;stroke-width:0.0818634"
   id="path30" /></svg>
